<svg id="KMLogo_sign" xmlns="http://www.w3.org/2000/svg" width="358" height="65">
	<defs>
		<style>
		.cls-1 {
			fill: #fff;
		}
		</style>
	</defs>
	
	<title>KittMedia Logo</title>
	
	<polygon class="cls-1" points="56.5 0 53.5 3 83 32.5 53.5 62 56.5 65 89 32.5 56.5 0"/>
	<polygon class="cls-1" points="44.5 0 41.5 3 71 32.5 41.5 62 44.5 65 77 32.5 44.5 0"/>
	<path class="cls-1" d="M32.5,0L0,32.5,32.5,65,65,32.5ZM6,32.5L32.5,6,59,32.5,32.5,59Z"/>
	<path class="cls-1" d="M102.4,57.3V9.5h4.3V31.9L128.2,9.5h5.7L111.3,32.4l23.7,25h-6.3l-22-24.3V57.3h-4.3Z"/>
	<path class="cls-1" d="M140.6,17a2.9,2.9,0,0,1,.9-2.2,3.1,3.1,0,0,1,4.4,0,3.1,3.1,0,0,1,0,4.4h0a3.1,3.1,0,0,1-2.2.9A3.1,3.1,0,0,1,140.6,17Zm1,40.3v-29h4.1v29h-4.1Z"/>
	<path class="cls-1" d="M158.9,31.8h-5.3V28.3h5.3V16.4h4V28.3h5.8v3.4h-5.8V57.3h-4V31.8Z"/>
	<path class="cls-1" d="M176.7,31.8h-5.3V28.3h5.3V16.4h4V28.3h5.8v3.4h-5.8V57.3h-4V31.8Z"/>
	<path class="cls-1" d="M271.6,43H248.7a15.1,15.1,0,0,0,2.4,8.3,8.6,8.6,0,0,0,7.5,3.7q6.4,0,9.6-7l3.7,2q-4.3,8.6-13.3,8.6a13.2,13.2,0,0,1-10.5-4.5,16.2,16.2,0,0,1-3.7-11A17.1,17.1,0,0,1,248,31.9a12.9,12.9,0,0,1,10.5-4.7,12.1,12.1,0,0,1,9.9,4.3A15.9,15.9,0,0,1,271.8,42v0.9h-0.2Zm-4.7-3.5q-0.6-8.4-9-8.4a8.5,8.5,0,0,0-6.1,2.3,9.4,9.4,0,0,0-2.8,6.1h17.9Z"/>
	<path class="cls-1" d="M301.4,57.3V52a10.2,10.2,0,0,1-10.1,6.6A12.5,12.5,0,0,1,281,54a16.8,16.8,0,0,1-3.5-11,17.5,17.5,0,0,1,3.4-11,12,12,0,0,1,10-4.8q7.5,0,10.4,6.4V6.7h4.1V57.3h-4ZM281.9,43.2a14.1,14.1,0,0,0,2.2,8.3q2.2,3.1,7.5,3.4a8.5,8.5,0,0,0,7.5-3.9,15.3,15.3,0,0,0,2.2-8.6,13.1,13.1,0,0,0-2.3-8,8.7,8.7,0,0,0-7.4-3.4,8.6,8.6,0,0,0-7.5,3.8A14.5,14.5,0,0,0,281.9,43.2Z"/>
	<path class="cls-1" d="M315.3,17a2.9,2.9,0,0,1,.9-2.2,3.1,3.1,0,0,1,4.4,0,3.1,3.1,0,0,1,0,4.4h0a3.1,3.1,0,0,1-2.2.9A3.1,3.1,0,0,1,315.3,17Zm1,40.3v-29h4.1v29h-4.1Z"/>
	<path class="cls-1" d="M352.7,57.3V52a10.3,10.3,0,0,1-10.1,6.6A12.6,12.6,0,0,1,332.3,54a16.7,16.7,0,0,1-3.5-11,17.5,17.5,0,0,1,3.4-11,12,12,0,0,1,10-4.8q7.6,0,10.5,6.4V28.3h4v29h-4ZM333.2,43.2a14.1,14.1,0,0,0,2.2,8.3q2.2,3.1,7.5,3.4a8.5,8.5,0,0,0,7.6-3.9,15.3,15.3,0,0,0,2.2-8.6,12.8,12.8,0,0,0-2.3-8A8.7,8.7,0,0,0,343,31a8.6,8.6,0,0,0-7.5,3.8A14.5,14.5,0,0,0,333.2,43.2Z"/>
	<path class="cls-1" d="M216.6,50.7L198.9,23.3v34h-4.1V7.5l21.9,35L238.5,7.4V57.3h-4.1v-34Z"/>
</svg>