<?xml version="1.0" encoding="utf-8"?>
<!-- Generator: Adobe Illustrator 19.1.0, SVG Export Plug-In . SVG Version: 6.00 Build 0)  -->
<!DOCTYPE svg PUBLIC "-//W3C//DTD SVG 1.1//EN" "http://www.w3.org/Graphics/SVG/1.1/DTD/svg11.dtd">
<svg version="1.1" xmlns="http://www.w3.org/2000/svg" xmlns:xlink="http://www.w3.org/1999/xlink" x="0px" y="0px" width="85.5px"
	 height="83.6px" viewBox="0 0 85.5 83.6" enable-background="new 0 0 85.5 83.6" xml:space="preserve">
<g id="sign_1_" display="none">
	
		<rect x="25.13" y="8.42" transform="matrix(-0.7071 -0.7071 0.7071 -0.7071 49.3099 62.0215)" display="inline" fill="#2075AB" width="24.75" height="24.75"/>
	
		<rect x="25.13" y="47.42" transform="matrix(-0.7071 -0.7071 0.7071 -0.7071 21.7327 128.5987)" display="inline" fill="#2075AB" width="24.75" height="24.75"/>
	
		<rect x="5.63" y="27.92" transform="matrix(0.7071 -0.7071 0.7071 0.7071 -23.2232 24.531)" display="inline" fill="#3BBA1C" width="24.75" height="24.75"/>
	
		<rect x="44.63" y="27.92" transform="matrix(0.7071 -0.7071 0.7071 0.7071 -11.8003 52.1082)" display="inline" fill="#F9CA35" width="24.75" height="24.75"/>
	<circle display="inline" fill="#FFFFFF" cx="37.5" cy="40.3" r="20"/>
</g>
<g id="sign_Kopie" display="none">
	<path display="inline" fill="#2075AB" d="M37.5,60.3c-5.01,0-9.58-1.86-13.09-4.91L20,59.8l17.5,17.5L55,59.8l-4.41-4.41
		C47.08,58.44,42.51,60.3,37.5,60.3z"/>
	<path display="inline" fill="#3BBA1C" d="M17.5,40.3c0-5.01,1.86-9.58,4.91-13.09L18,22.8L0.5,40.3L18,57.8l4.41-4.41
		C19.36,49.88,17.5,45.31,17.5,40.3z"/>
	<path display="inline" fill="#2075AB" d="M37.5,20.3c5.01,0,9.58,1.86,13.09,4.91L55,20.8L37.5,3.3L20,20.8l4.41,4.41
		C27.92,22.16,32.49,20.3,37.5,20.3z"/>
	<path display="inline" fill="#F9CA35" d="M57,22.8l-4.41,4.41c3.05,3.51,4.91,8.08,4.91,13.09s-1.86,9.58-4.91,13.09L57,57.8
		l17.5-17.5L57,22.8z"/>
</g>
<g id="sign" display="none">
	
		<rect x="29.52" y="16.82" transform="matrix(0.7071 -0.7071 0.7071 0.7071 -12.7648 48.7798)" display="inline" fill="#F9CA35" width="45.96" height="45.96"/>
	
		<rect x="19.52" y="16.82" transform="matrix(0.7071 -0.7071 0.7071 0.7071 -15.6937 41.7087)" display="inline" fill="#3BBA1C" width="45.96" height="45.96"/>
	
		<rect x="9.52" y="16.82" transform="matrix(0.7071 -0.7071 0.7071 0.7071 -18.6226 34.6376)" display="inline" fill="#2075AB" width="45.96" height="45.96"/>
	
		<rect x="23.52" y="16.82" transform="matrix(0.7071 -0.7071 0.7071 0.7071 -14.5221 44.5371)" display="inline" fill="#D3D3D3" width="45.96" height="45.96"/>
	
		<rect x="13.52" y="16.82" transform="matrix(0.7071 -0.7071 0.7071 0.7071 -17.4511 37.4661)" display="inline" fill="#D3D3D3" width="45.96" height="45.96"/>
</g>
<g id="KMLogo_x5F_sign">
	<polygon points="53,8.8 50,11.8 79.5,41.3 50,70.8 53,73.8 85.5,41.3 	"/>
	<polygon points="43,8.8 40,11.8 69.5,41.3 40,70.8 43,73.8 75.5,41.3 	"/>
	<path d="M33,8.8L0.5,41.3L33,73.8l32.5-32.5L33,8.8z M6.5,41.3L33,14.8l26.5,26.5L33,67.8L6.5,41.3z"/>
</g>
<g id="KMLogo_x5F_font">
	<g display="none">
		<path display="inline" fill="#999999" d="M110.26,73.98l-1.66-14.4l-7.85,14.83l-3.61-14.86l-5.77,14.42h-1l7.04-17.64l3.73,15.29
			l8.11-15.31l2.02,17.66H110.26z"/>
		<path display="inline" fill="#999999" d="M122.23,72.66c-1.15,0.99-2.45,1.49-3.9,1.49c-1.48,0-2.64-0.49-3.48-1.46
			c-0.86-0.98-1.19-2.19-1-3.65c0.23-1.44,0.91-2.65,2.05-3.62c1.14-1.01,2.44-1.51,3.9-1.51c1.45,0,2.6,0.5,3.46,1.49
			c0.86,1.01,1.19,2.22,0.97,3.65C124.03,70.44,123.36,71.65,122.23,72.66z M122.47,66.08c-0.71-0.82-1.66-1.22-2.83-1.22
			c-1.15,0-2.2,0.42-3.14,1.25c-0.96,0.85-1.52,1.82-1.68,2.93c-0.15,1.14,0.13,2.11,0.83,2.93c0.73,0.82,1.66,1.22,2.8,1.22
			c1.15,0,2.21-0.4,3.17-1.2c0.94-0.83,1.49-1.82,1.63-2.95C123.41,67.87,123.15,66.89,122.47,66.08z"/>
		<path display="inline" fill="#999999" d="M134.21,73.98l0.27-1.78c-1.27,1.3-2.72,1.94-4.36,1.94c-1.48,0-2.64-0.49-3.48-1.46
			c-0.86-0.98-1.19-2.19-1-3.65c0.23-1.44,0.9-2.65,2.02-3.62c1.15-0.99,2.45-1.49,3.9-1.49c1.62,0,2.9,0.65,3.83,1.94l1.36-9.65h1
			l-2.53,17.76H134.21z M134.24,66.11c-0.73-0.82-1.67-1.22-2.8-1.22c-1.15,0-2.21,0.4-3.17,1.2c-0.94,0.83-1.49,1.82-1.66,2.95
			c-0.15,1.14,0.13,2.11,0.83,2.93c0.73,0.82,1.67,1.22,2.8,1.22c1.15,0,2.21-0.4,3.17-1.2c0.94-0.83,1.49-1.82,1.63-2.95
			C135.22,67.9,134.95,66.93,134.24,66.11z"/>
		<path display="inline" fill="#999999" d="M139.67,68.82c-0.19,1.34,0.02,2.41,0.66,3.19c0.63,0.8,1.62,1.2,2.97,1.2
			c0.67,0,1.3-0.11,1.9-0.34c0.71-0.29,1.42-0.87,2.12-1.75l0.83,0.41c-0.8,1.2-1.88,2-3.26,2.4c-0.54,0.16-1.11,0.24-1.73,0.24
			c-1.51,0-2.69-0.49-3.53-1.46c-0.86-0.98-1.18-2.2-0.95-3.67c0.23-1.49,0.89-2.71,2-3.67c1.1-0.98,2.42-1.46,3.95-1.46
			c1.49,0,2.67,0.46,3.53,1.37c0.84,0.91,1.16,2.1,0.95,3.55H139.67z M147,65.68c-0.7-0.54-1.54-0.82-2.53-0.82
			c-2.08,0-3.58,1.01-4.51,3.02h8.16C148.08,66.97,147.7,66.24,147,65.68z"/>
		<path display="inline" fill="#999999" d="M156.63,65.53c-0.23-0.19-0.48-0.34-0.75-0.46c-0.28-0.11-0.58-0.17-0.9-0.17
			c-0.28,0-0.55,0.08-0.82,0.25s-0.51,0.38-0.73,0.62c-0.22,0.25-0.4,0.52-0.55,0.83c-0.15,0.3-0.24,0.58-0.27,0.84l-0.93,6.53h-1
			l1.41-9.91h1l-0.19,1.34c0.26-0.37,0.58-0.7,0.96-1.01c0.38-0.3,0.78-0.46,1.18-0.46c0.52,0,0.93,0.06,1.23,0.17
			c0.3,0.11,0.64,0.31,1.01,0.6L156.63,65.53z"/>
		<path display="inline" fill="#999999" d="M165.01,73.98l0.85-5.93c0.29-2.1-0.52-3.14-2.44-3.14c-0.96,0-1.71,0.27-2.27,0.82
			c-0.57,0.53-0.93,1.27-1.07,2.23l-0.85,6.02h-1l1.41-9.91h1l-0.17,1.2c0.58-0.88,1.62-1.32,3.09-1.32c1.25,0,2.16,0.35,2.73,1.06
			c0.57,0.7,0.75,1.69,0.56,2.95l-0.85,6.02H165.01z"/>
		<path display="inline" fill="#999999" d="M169.47,76.45l-0.29-0.22l2.12-3.91l1.05,0.36L169.47,76.45z"/>
		<path display="inline" fill="#999999" d="M180.72,68.82c-0.19,1.34,0.02,2.41,0.66,3.19c0.63,0.8,1.62,1.2,2.97,1.2
			c0.67,0,1.3-0.11,1.9-0.34c0.71-0.29,1.42-0.87,2.12-1.75l0.83,0.41c-0.8,1.2-1.88,2-3.26,2.4c-0.54,0.16-1.11,0.24-1.73,0.24
			c-1.51,0-2.69-0.49-3.53-1.46c-0.86-0.98-1.18-2.2-0.95-3.67c0.23-1.49,0.89-2.71,2-3.67c1.1-0.98,2.42-1.46,3.95-1.46
			c1.49,0,2.67,0.46,3.53,1.37c0.84,0.91,1.16,2.1,0.95,3.55H180.72z M188.06,65.68c-0.7-0.54-1.54-0.82-2.53-0.82
			c-2.08,0-3.58,1.01-4.51,3.02h8.16C189.13,66.97,188.76,66.24,188.06,65.68z"/>
		<path display="inline" fill="#999999" d="M198.51,73.98l0.85-5.93c0.29-2.1-0.52-3.14-2.44-3.14c-0.96,0-1.71,0.27-2.27,0.82
			c-0.57,0.53-0.93,1.27-1.07,2.23l-0.85,6.02h-1l1.41-9.91h1l-0.17,1.2c0.58-0.88,1.62-1.32,3.09-1.32c1.25,0,2.16,0.35,2.73,1.06
			s0.76,1.69,0.56,2.95l-0.85,6.02H198.51z"/>
		<path display="inline" fill="#999999" d="M205.21,65.05l-1.29,8.93h-1l1.29-8.93h-1.61l0.12-0.98h1.61l0.63-4.34h1l-0.63,4.34
			h2.34l-0.12,0.98H205.21z"/>
		<path display="inline" fill="#999999" d="M215.42,74.01l0.85-5.98c0.29-2.1-0.55-3.14-2.53-3.14c-0.81,0-1.54,0.24-2.19,0.72
			c-0.65,0.46-1.04,1.1-1.17,1.92l-0.93,6.46h-1l2.53-17.76h1l-1.32,9.17c0.75-0.98,1.82-1.46,3.22-1.46c2.65,0,3.78,1.34,3.39,4.01
			l-0.85,6.07H215.42z"/>
		<path display="inline" fill="#999999" d="M226.48,73.12c-0.76,0.7-1.75,1.06-2.97,1.06c-1.19,0-2.06-0.34-2.61-1.03
			c-0.54-0.7-0.72-1.66-0.56-2.88l0.9-6.19h1l-0.9,6.19c-0.13,0.98-0.02,1.7,0.34,2.18c0.37,0.51,1.03,0.77,1.97,0.77
			c1.87,0,2.94-0.98,3.22-2.95l0.9-6.19h0.97l-0.9,6.19C227.68,71.46,227.23,72.41,226.48,73.12z"/>
		<path display="inline" fill="#999999" d="M235.4,73.36c-0.7,0.54-1.51,0.82-2.44,0.82c-1.56,0-2.63-0.7-3.22-2.09l0.93-0.5
			c0.19,0.46,0.48,0.85,0.85,1.15c0.36,0.3,0.88,0.46,1.58,0.46c1.53,0,2.38-0.64,2.56-1.92c0.08-0.56-0.11-1.05-0.58-1.46
			c-0.29-0.18-0.86-0.42-1.71-0.74c-0.78-0.3-1.32-0.59-1.63-0.86c-0.47-0.4-0.64-1-0.51-1.8c0.07-0.66,0.41-1.23,1.02-1.73
			c0.57-0.5,1.26-0.74,2.07-0.74c1.12,0,2.01,0.38,2.68,1.15l-0.8,0.62c-0.49-0.54-1.16-0.82-2.02-0.82c-1.19,0-1.84,0.5-1.95,1.51
			c-0.08,0.45,0.04,0.82,0.37,1.1c0.13,0.11,0.3,0.22,0.52,0.32c0.22,0.1,0.47,0.21,0.77,0.32c0.52,0.19,0.95,0.37,1.28,0.54
			c0.33,0.17,0.59,0.32,0.77,0.44c0.6,0.53,0.84,1.24,0.73,2.14C236.53,72.13,236.11,72.83,235.4,73.36z"/>
		<path display="inline" fill="#999999" d="M238.37,73.98l1.41-9.91h1l-1.41,9.91H238.37z M240.56,62.29c-0.2,0-0.37-0.07-0.54-0.22
			c-0.11-0.11-0.17-0.3-0.17-0.58c0.08-0.43,0.39-0.7,0.93-0.79c0.42,0,0.65,0.26,0.68,0.79C241.38,62.03,241.08,62.29,240.56,62.29
			z"/>
		<path display="inline" fill="#999999" d="M251.38,73.98l0.24-1.7c-1.25,1.25-2.68,1.87-4.29,1.87c-1.48,0-2.64-0.49-3.48-1.46
			s-1.17-2.19-0.97-3.65c0.2-1.42,0.87-2.63,2.02-3.62c1.15-0.99,2.45-1.49,3.9-1.49c1.59,0,2.84,0.62,3.75,1.87l0.24-1.73h1
			l-1.41,9.91H251.38z M251.45,66.11c-0.71-0.82-1.65-1.22-2.8-1.22s-2.2,0.4-3.14,1.2c-0.93,0.8-1.48,1.79-1.66,2.95
			c-0.16,1.12,0.11,2.1,0.83,2.93c0.7,0.82,1.63,1.22,2.8,1.22c1.15,0,2.2-0.4,3.14-1.2c0.93-0.8,1.48-1.78,1.66-2.95
			C252.44,67.92,252.17,66.94,251.45,66.11z"/>
		<path display="inline" fill="#999999" d="M260.37,73.36c-0.7,0.54-1.51,0.82-2.44,0.82c-1.56,0-2.63-0.7-3.22-2.09l0.93-0.5
			c0.19,0.46,0.48,0.85,0.85,1.15c0.36,0.3,0.88,0.46,1.58,0.46c1.53,0,2.38-0.64,2.56-1.92c0.08-0.56-0.11-1.05-0.58-1.46
			c-0.29-0.18-0.86-0.42-1.71-0.74c-0.78-0.3-1.32-0.59-1.63-0.86c-0.47-0.4-0.64-1-0.51-1.8c0.07-0.66,0.41-1.23,1.02-1.73
			c0.57-0.5,1.26-0.74,2.07-0.74c1.12,0,2.01,0.38,2.68,1.15l-0.8,0.62c-0.49-0.54-1.16-0.82-2.02-0.82c-1.19,0-1.84,0.5-1.95,1.51
			c-0.08,0.45,0.04,0.82,0.37,1.1c0.13,0.11,0.3,0.22,0.52,0.32c0.22,0.1,0.47,0.21,0.77,0.32c0.52,0.19,0.95,0.37,1.28,0.54
			c0.33,0.17,0.59,0.32,0.77,0.44c0.6,0.53,0.84,1.24,0.73,2.14C261.51,72.13,261.08,72.83,260.37,73.36z"/>
		<path display="inline" fill="#999999" d="M265.9,65.05l-1.29,8.93h-1l1.29-8.93h-1.61l0.12-0.98h1.61l0.63-4.34h1l-0.63,4.34h2.34
			l-0.12,0.98H265.9z"/>
		<path display="inline" fill="#999999" d="M269.43,73.98l1.41-9.91h1l-1.41,9.91H269.43z M271.63,62.29c-0.2,0-0.37-0.07-0.54-0.22
			c-0.11-0.11-0.17-0.3-0.17-0.58c0.08-0.43,0.39-0.7,0.93-0.79c0.42,0,0.65,0.26,0.68,0.79C272.45,62.03,272.15,62.29,271.63,62.29
			z"/>
		<path display="inline" fill="#999999" d="M278.71,74.17c-1.51,0-2.69-0.49-3.53-1.46c-0.84-1.01-1.16-2.23-0.95-3.67
			c0.23-1.49,0.9-2.71,2.02-3.67c1.1-0.98,2.41-1.46,3.92-1.46c1.28,0,2.27,0.29,2.95,0.86l-0.17,1.18l-0.56-0.41l-0.63-0.36
			c-0.58-0.21-1.16-0.31-1.73-0.31c-1.25,0-2.32,0.38-3.22,1.15c-0.91,0.8-1.45,1.81-1.61,3.02c-0.16,1.22,0.09,2.22,0.75,3
			c0.7,0.78,1.67,1.18,2.9,1.18c1.17,0,2.24-0.38,3.22-1.15l-0.17,1.22C280.92,73.88,279.85,74.17,278.71,74.17z"/>
		<path display="inline" fill="#999999" d="M300.76,74.41l-2.02-7.92l-4.31,7.92l-3.05-10.34h1.07l2.29,7.68l4.39-7.99l2.09,7.97
			l4.43-7.66h1.12L300.76,74.41z"/>
		<path display="inline" fill="#999999" d="M308.46,68.82c-0.19,1.34,0.02,2.41,0.66,3.19c0.63,0.8,1.62,1.2,2.97,1.2
			c0.67,0,1.3-0.11,1.9-0.34c0.71-0.29,1.42-0.87,2.12-1.75l0.83,0.41c-0.8,1.2-1.88,2-3.26,2.4c-0.54,0.16-1.11,0.24-1.73,0.24
			c-1.51,0-2.69-0.49-3.53-1.46c-0.86-0.98-1.18-2.2-0.95-3.67c0.23-1.49,0.89-2.71,2-3.67c1.1-0.98,2.42-1.46,3.95-1.46
			c1.49,0,2.67,0.46,3.53,1.37c0.84,0.91,1.16,2.1,0.95,3.55H308.46z M315.8,65.68c-0.7-0.54-1.54-0.82-2.53-0.82
			c-2.08,0-3.58,1.01-4.51,3.02h8.16C316.87,66.97,316.5,66.24,315.8,65.68z"/>
		<path display="inline" fill="#999999" d="M327.66,72.66c-1.15,0.99-2.45,1.49-3.9,1.49c-1.69,0-2.97-0.66-3.85-1.99l-0.27,1.82h-1
			l2.53-17.76h1l-1.36,9.7c1.22-1.33,2.68-1.99,4.39-1.99c1.48,0,2.64,0.49,3.48,1.46c0.86,1.01,1.19,2.22,0.97,3.65
			C329.46,70.44,328.8,71.65,327.66,72.66z M327.88,66.11c-0.73-0.82-1.67-1.22-2.8-1.22c-1.15,0-2.21,0.4-3.17,1.2
			c-0.94,0.83-1.49,1.82-1.66,2.95c-0.15,1.14,0.13,2.11,0.83,2.93c0.73,0.82,1.66,1.22,2.8,1.22c1.15,0,2.21-0.4,3.17-1.2
			c0.94-0.83,1.49-1.82,1.63-2.95C328.86,67.9,328.6,66.93,327.88,66.11z"/>
		<path display="inline" fill="#999999" d="M339.65,73.98l0.27-1.78c-1.27,1.3-2.72,1.94-4.36,1.94c-1.48,0-2.64-0.49-3.48-1.46
			c-0.86-0.98-1.19-2.19-1-3.65c0.23-1.44,0.9-2.65,2.02-3.62c1.15-0.99,2.45-1.49,3.9-1.49c1.62,0,2.9,0.65,3.83,1.94l1.36-9.65h1
			l-2.53,17.76H339.65z M339.67,66.11c-0.73-0.82-1.67-1.22-2.8-1.22c-1.15,0-2.21,0.4-3.17,1.2c-0.94,0.83-1.49,1.82-1.66,2.95
			c-0.15,1.14,0.13,2.11,0.83,2.93c0.73,0.82,1.67,1.22,2.8,1.22c1.15,0,2.21-0.4,3.17-1.2c0.94-0.83,1.49-1.82,1.63-2.95
			C340.66,67.9,340.39,66.93,339.67,66.11z"/>
		<path display="inline" fill="#999999" d="M345.11,68.82c-0.19,1.34,0.02,2.41,0.66,3.19c0.63,0.8,1.62,1.2,2.97,1.2
			c0.67,0,1.3-0.11,1.9-0.34c0.71-0.29,1.42-0.87,2.12-1.75l0.83,0.41c-0.8,1.2-1.88,2-3.26,2.4c-0.54,0.16-1.11,0.24-1.73,0.24
			c-1.51,0-2.69-0.49-3.53-1.46c-0.86-0.98-1.18-2.2-0.95-3.67c0.23-1.49,0.89-2.71,2-3.67c1.1-0.98,2.42-1.46,3.95-1.46
			c1.49,0,2.67,0.46,3.53,1.37c0.84,0.91,1.16,2.1,0.95,3.55H345.11z M352.44,65.68c-0.7-0.54-1.54-0.82-2.53-0.82
			c-2.08,0-3.58,1.01-4.51,3.02h8.16C353.51,66.97,353.14,66.24,352.44,65.68z"/>
		<path display="inline" fill="#999999" d="M361.14,73.36c-0.7,0.54-1.51,0.82-2.44,0.82c-1.56,0-2.63-0.7-3.22-2.09l0.93-0.5
			c0.19,0.46,0.48,0.85,0.85,1.15c0.36,0.3,0.88,0.46,1.58,0.46c1.53,0,2.38-0.64,2.56-1.92c0.08-0.56-0.11-1.05-0.58-1.46
			c-0.29-0.18-0.86-0.42-1.71-0.74c-0.78-0.3-1.32-0.59-1.63-0.86c-0.47-0.4-0.64-1-0.51-1.8c0.07-0.66,0.41-1.23,1.02-1.73
			c0.57-0.5,1.26-0.74,2.07-0.74c1.12,0,2.01,0.38,2.68,1.15l-0.8,0.62c-0.49-0.54-1.16-0.82-2.02-0.82c-1.19,0-1.84,0.5-1.95,1.51
			c-0.08,0.45,0.04,0.82,0.37,1.1c0.13,0.11,0.3,0.22,0.52,0.32c0.22,0.1,0.47,0.21,0.77,0.32c0.52,0.19,0.95,0.37,1.28,0.54
			c0.33,0.17,0.59,0.32,0.77,0.44c0.6,0.53,0.84,1.24,0.73,2.14C362.28,72.13,361.85,72.83,361.14,73.36z"/>
		<path display="inline" fill="#999999" d="M364.11,73.98l1.41-9.91h1l-1.41,9.91H364.11z M366.3,62.29c-0.2,0-0.37-0.07-0.54-0.22
			c-0.11-0.11-0.17-0.3-0.17-0.58c0.08-0.43,0.39-0.7,0.93-0.79c0.42,0,0.65,0.26,0.68,0.79C367.12,62.03,366.82,62.29,366.3,62.29z
			"/>
		<path display="inline" fill="#999999" d="M376.61,77.29c-1.04,0.9-2.3,1.34-3.78,1.34c-2.73,0-4.21-1.06-4.46-3.19h1
			c0.05,0.78,0.48,1.37,1.29,1.75c0.62,0.3,1.39,0.46,2.31,0.46c1.25,0,2.27-0.34,3.07-1.03c0.79-0.7,1.27-1.66,1.44-2.88l0.22-1.46
			c-1.25,1.25-2.68,1.87-4.29,1.87c-1.48,0-2.64-0.49-3.48-1.46c-0.88-0.98-1.2-2.19-0.97-3.65c0.19-1.41,0.86-2.62,2-3.62
			c1.15-0.99,2.45-1.49,3.9-1.49c1.62,0,2.88,0.62,3.75,1.87l0.27-1.73h1l-1.39,9.7C378.26,75.24,377.63,76.41,376.61,77.29z
			 M377.54,66.11c-0.73-0.82-1.67-1.22-2.8-1.22c-1.15,0-2.21,0.4-3.17,1.2c-0.94,0.83-1.49,1.82-1.63,2.95
			c-0.18,1.14,0.09,2.11,0.8,2.93c0.73,0.82,1.67,1.22,2.8,1.22c1.15,0,2.21-0.4,3.17-1.2c0.94-0.83,1.49-1.82,1.66-2.95
			C378.51,67.9,378.23,66.93,377.54,66.11z"/>
		<path display="inline" fill="#999999" d="M387.87,73.98l0.85-5.93c0.29-2.1-0.52-3.14-2.44-3.14c-0.96,0-1.71,0.27-2.27,0.82
			c-0.57,0.53-0.93,1.27-1.07,2.23l-0.85,6.02h-1l1.41-9.91h1l-0.17,1.2c0.58-0.88,1.62-1.32,3.09-1.32c1.25,0,2.16,0.35,2.73,1.06
			s0.76,1.69,0.56,2.95l-0.85,6.02H387.87z"/>
		<path display="inline" fill="#999999" d="M406.75,73.98l0.24-1.7c-1.25,1.25-2.68,1.87-4.29,1.87c-1.48,0-2.64-0.49-3.48-1.46
			s-1.17-2.19-0.97-3.65c0.2-1.42,0.87-2.63,2.02-3.62c1.15-0.99,2.45-1.49,3.9-1.49c1.59,0,2.84,0.62,3.75,1.87l0.24-1.73h1
			l-1.41,9.91H406.75z M406.82,66.11c-0.71-0.82-1.65-1.22-2.8-1.22s-2.2,0.4-3.14,1.2c-0.93,0.8-1.48,1.79-1.66,2.95
			c-0.16,1.12,0.11,2.1,0.83,2.93c0.7,0.82,1.63,1.22,2.8,1.22c1.15,0,2.2-0.4,3.14-1.2c0.93-0.8,1.48-1.78,1.66-2.95
			C407.81,67.92,407.54,66.94,406.82,66.11z"/>
		<path display="inline" fill="#999999" d="M417.49,73.98l0.85-5.93c0.29-2.1-0.52-3.14-2.44-3.14c-0.96,0-1.71,0.27-2.27,0.82
			c-0.57,0.53-0.93,1.27-1.07,2.23l-0.85,6.02h-1l1.41-9.91h1l-0.17,1.2c0.58-0.88,1.62-1.32,3.09-1.32c1.25,0,2.16,0.35,2.73,1.06
			s0.76,1.69,0.56,2.95l-0.85,6.02H417.49z"/>
		<path display="inline" fill="#999999" d="M429.87,73.98l0.27-1.78c-1.27,1.3-2.72,1.94-4.36,1.94c-1.48,0-2.64-0.49-3.48-1.46
			c-0.86-0.98-1.19-2.19-1-3.65c0.23-1.44,0.9-2.65,2.02-3.62c1.15-0.99,2.45-1.49,3.9-1.49c1.62,0,2.9,0.65,3.83,1.94l1.36-9.65h1
			l-2.53,17.76H429.87z M429.89,66.11c-0.73-0.82-1.67-1.22-2.8-1.22c-1.15,0-2.21,0.4-3.17,1.2c-0.94,0.83-1.49,1.82-1.66,2.95
			c-0.15,1.14,0.13,2.11,0.83,2.93c0.73,0.82,1.67,1.22,2.8,1.22c1.15,0,2.21-0.4,3.17-1.2c0.94-0.83,1.49-1.82,1.63-2.95
			C430.88,67.9,430.61,66.93,429.89,66.11z"/>
		<path display="inline" fill="#999999" d="M448.78,73.98l0.27-1.78c-1.27,1.3-2.72,1.94-4.36,1.94c-1.48,0-2.64-0.49-3.48-1.46
			c-0.86-0.98-1.19-2.19-1-3.65c0.23-1.44,0.9-2.65,2.02-3.62c1.15-0.99,2.45-1.49,3.9-1.49c1.62,0,2.9,0.65,3.83,1.94l1.36-9.65h1
			l-2.53,17.76H448.78z M448.8,66.11c-0.73-0.82-1.67-1.22-2.8-1.22c-1.15,0-2.21,0.4-3.17,1.2c-0.94,0.83-1.49,1.82-1.66,2.95
			c-0.15,1.14,0.13,2.11,0.83,2.93c0.73,0.82,1.67,1.22,2.8,1.22c1.15,0,2.21-0.4,3.17-1.2c0.94-0.83,1.49-1.82,1.63-2.95
			C449.78,67.9,449.51,66.93,448.8,66.11z"/>
		<path display="inline" fill="#999999" d="M454.23,68.82c-0.19,1.34,0.02,2.41,0.66,3.19c0.63,0.8,1.62,1.2,2.97,1.2
			c0.67,0,1.3-0.11,1.9-0.34c0.71-0.29,1.42-0.87,2.12-1.75l0.83,0.41c-0.8,1.2-1.88,2-3.26,2.4c-0.54,0.16-1.11,0.24-1.73,0.24
			c-1.51,0-2.69-0.49-3.53-1.46c-0.86-0.98-1.18-2.2-0.95-3.67c0.23-1.49,0.89-2.71,2-3.67c1.1-0.98,2.42-1.46,3.95-1.46
			c1.49,0,2.67,0.46,3.53,1.37c0.84,0.91,1.16,2.1,0.95,3.55H454.23z M461.57,65.68c-0.7-0.54-1.54-0.82-2.53-0.82
			c-2.08,0-3.58,1.01-4.51,3.02h8.16C462.64,66.97,462.26,66.24,461.57,65.68z"/>
		<path display="inline" fill="#999999" d="M467.68,74.41l-3.29-10.34h1.07l2.53,7.9l4.8-7.9h1.12L467.68,74.41z"/>
		<path display="inline" fill="#999999" d="M475.43,68.82c-0.19,1.34,0.02,2.41,0.66,3.19c0.63,0.8,1.62,1.2,2.97,1.2
			c0.67,0,1.3-0.11,1.9-0.34c0.71-0.29,1.42-0.87,2.12-1.75l0.83,0.41c-0.8,1.2-1.88,2-3.26,2.4c-0.54,0.16-1.11,0.24-1.73,0.24
			c-1.51,0-2.69-0.49-3.53-1.46c-0.86-0.98-1.18-2.2-0.95-3.67c0.23-1.49,0.89-2.71,2-3.67c1.1-0.98,2.42-1.46,3.95-1.46
			c1.49,0,2.67,0.46,3.53,1.37c0.84,0.91,1.16,2.1,0.95,3.55H475.43z M482.76,65.68c-0.7-0.54-1.54-0.82-2.53-0.82
			c-2.08,0-3.58,1.01-4.51,3.02h8.16C483.83,66.97,483.46,66.24,482.76,65.68z"/>
		<path display="inline" fill="#999999" d="M486.15,73.98l2.53-17.76h0.97l-2.53,17.76H486.15z"/>
		<path display="inline" fill="#999999" d="M499.43,72.66c-1.15,0.99-2.45,1.49-3.9,1.49c-1.48,0-2.64-0.49-3.48-1.46
			c-0.86-0.98-1.19-2.19-1-3.65c0.23-1.44,0.91-2.65,2.05-3.62c1.14-1.01,2.44-1.51,3.9-1.51c1.45,0,2.6,0.5,3.46,1.49
			c0.86,1.01,1.19,2.22,0.97,3.65C501.23,70.44,500.56,71.65,499.43,72.66z M499.67,66.08c-0.71-0.82-1.66-1.22-2.83-1.22
			c-1.15,0-2.2,0.42-3.14,1.25c-0.96,0.85-1.52,1.82-1.68,2.93c-0.15,1.14,0.13,2.11,0.83,2.93c0.73,0.82,1.67,1.22,2.8,1.22
			c1.15,0,2.21-0.4,3.17-1.2c0.94-0.83,1.49-1.82,1.63-2.95C500.61,67.87,500.35,66.89,499.67,66.08z"/>
		<path display="inline" fill="#999999" d="M512.54,72.66c-1.14,0.99-2.44,1.49-3.9,1.49c-1.67,0-2.96-0.67-3.85-2.02l-0.93,6.5h-1
			l2.07-14.57h1l-0.27,1.87c1.23-1.34,2.71-2.02,4.43-2.02c1.48,0,2.64,0.49,3.48,1.46c0.86,1.01,1.18,2.22,0.97,3.65
			C514.36,70.46,513.69,71.67,512.54,72.66z M512.75,66.11c-0.71-0.82-1.65-1.22-2.8-1.22s-2.2,0.4-3.14,1.2
			c-0.93,0.8-1.48,1.79-1.66,2.95c-0.16,1.12,0.11,2.1,0.83,2.93c0.7,0.82,1.63,1.22,2.8,1.22c1.15,0,2.2-0.4,3.14-1.2
			c0.93-0.8,1.48-1.78,1.66-2.95C513.76,67.9,513.49,66.93,512.75,66.11z"/>
		<path display="inline" fill="#999999" d="M527.2,73.98l0.97-6.84c0.08-0.64-0.06-1.17-0.41-1.58c-0.34-0.45-0.89-0.67-1.63-0.67
			c-1.59,0-2.48,0.75-2.68,2.26l-0.97,6.84h-1l0.97-6.84c0.08-0.67-0.07-1.21-0.46-1.61c-0.39-0.43-0.92-0.65-1.58-0.65
			c-0.68,0-1.28,0.21-1.78,0.62c-0.5,0.4-0.8,0.94-0.9,1.63l-0.97,6.84h-1l1.41-9.91h1l-0.15,0.98c0.58-0.75,1.42-1.13,2.51-1.13
			c1.33,0,2.22,0.52,2.66,1.56c0.73-1.04,1.75-1.56,3.07-1.56c1.02,0,1.8,0.28,2.34,0.84c0.54,0.58,0.73,1.37,0.58,2.38l-0.97,6.84
			H527.2z"/>
		<path display="inline" fill="#999999" d="M532.34,68.82c-0.19,1.34,0.02,2.41,0.66,3.19c0.63,0.8,1.62,1.2,2.97,1.2
			c0.67,0,1.3-0.11,1.9-0.34c0.71-0.29,1.42-0.87,2.12-1.75l0.83,0.41c-0.8,1.2-1.88,2-3.26,2.4c-0.54,0.16-1.11,0.24-1.73,0.24
			c-1.51,0-2.69-0.49-3.53-1.46c-0.86-0.98-1.18-2.2-0.95-3.67c0.23-1.49,0.89-2.71,2-3.67c1.1-0.98,2.42-1.46,3.95-1.46
			c1.49,0,2.67,0.46,3.53,1.37c0.84,0.91,1.16,2.1,0.95,3.55H532.34z M539.68,65.68c-0.7-0.54-1.54-0.82-2.53-0.82
			c-2.08,0-3.58,1.01-4.51,3.02h8.16C540.75,66.97,540.38,66.24,539.68,65.68z"/>
		<path display="inline" fill="#999999" d="M550.13,73.98l0.85-5.93c0.29-2.1-0.52-3.14-2.44-3.14c-0.96,0-1.71,0.27-2.27,0.82
			c-0.57,0.53-0.93,1.27-1.07,2.23l-0.85,6.02h-1l1.41-9.91h1l-0.17,1.2c0.58-0.88,1.62-1.32,3.09-1.32c1.25,0,2.16,0.35,2.73,1.06
			s0.76,1.69,0.56,2.95l-0.85,6.02H550.13z"/>
		<path display="inline" fill="#999999" d="M556.83,65.05l-1.29,8.93h-1l1.29-8.93h-1.61l0.12-0.98h1.61l0.63-4.34h1l-0.63,4.34
			h2.34l-0.12,0.98H556.83z"/>
	</g>
</g>
<g id="M">
	<g>
	</g>
	<g>
	</g>
	<g>
	</g>
	<g>
	</g>
	<g>
	</g>
	<g>
	</g>
	<g>
	</g>
	<g>
	</g>
	<g>
	</g>
	<g>
	</g>
	<g>
	</g>
	<g>
	</g>
	<g>
	</g>
	<g>
	</g>
	<g>
	</g>
</g>
</svg>
